<?xml version="1.0" standalone="no"?>
<!DOCTYPE svg PUBLIC "-//W3C//DTD SVG 20010904//EN"
 "http://www.w3.org/TR/2001/REC-SVG-20010904/DTD/svg10.dtd">
<svg version="1.0" xmlns="http://www.w3.org/2000/svg"
 width="637.000000pt" height="637.000000pt" viewBox="0 0 637.000000 637.000000"
 preserveAspectRatio="xMidYMid meet">
<metadata>
Created by potrace 1.11, written by Peter Selinger 2001-2013
</metadata>
<g transform="translate(0.000000,637.000000) scale(0.100000,-0.100000)"
fill="#000000" stroke="none">
<path d="M5020 4203 c-424 -40 -792 -385 -860 -808 -12 -72 -16 -260 -6 -292
3 -10 7 -34 10 -54 9 -59 62 -206 101 -275 74 -135 186 -260 307 -340 68 -46
226 -124 249 -124 8 0 5 -8 -8 -22 -11 -13 -24 -33 -28 -45 -8 -30 -24 -30
-19 0 2 12 2 17 -2 10 -4 -9 -12 -6 -27 10 -26 28 -82 67 -94 67 -4 0 -1 -5 7
-10 9 -6 10 -10 3 -10 -6 0 -15 5 -18 10 -3 6 -16 10 -28 9 -21 0 -21 -1 -3
-8 20 -8 20 -8 0 -13 -11 -3 -26 1 -33 9 -7 8 -19 12 -27 9 -7 -3 -16 -1 -19
4 -3 5 -12 7 -20 4 -8 -4 -12 -11 -9 -16 4 -6 -2 -5 -14 1 -25 14 -43 14 -22
1 8 -5 10 -10 4 -10 -14 0 -13 -42 1 -52 7 -5 6 -8 -1 -8 -5 0 -25 16 -44 35
-18 19 -37 32 -42 29 -4 -3 -8 0 -8 6 0 7 -8 9 -21 5 -14 -5 -19 -3 -15 3 4 7
-11 10 -41 10 -37 0 -43 -2 -28 -9 16 -7 14 -8 -12 -6 -18 2 -29 -1 -26 -5 3
-5 -3 -8 -13 -6 -10 2 -19 -2 -19 -9 0 -6 -4 -15 -8 -20 -5 -4 -7 -3 -6 2 8
28 -93 176 -109 160 -3 -2 -11 0 -17 5 -7 6 -24 11 -39 12 -14 1 -26 6 -26 10
0 4 -16 8 -36 8 -21 0 -33 -4 -29 -10 3 -5 2 -10 -4 -10 -5 0 -12 6 -14 13 -4
8 -8 9 -14 1 -4 -6 -23 -10 -41 -8 -17 1 -35 -2 -38 -7 -5 -8 -5 -395 -1 -484
2 -30 3 -30 67 -33 99 -5 110 0 111 51 1 23 3 34 6 25 2 -10 9 -18 14 -18 6 0
8 -4 5 -8 -3 -5 2 -18 10 -30 13 -19 25 -22 90 -22 41 0 74 2 74 5 0 12 -29
67 -67 127 -47 74 -49 78 -30 78 7 0 23 9 35 20 l22 21 0 -48 c0 -26 6 -67 13
-91 11 -35 15 -40 27 -30 12 11 12 10 1 -4 -12 -16 -9 -22 18 -47 23 -22 45
-31 84 -36 75 -9 157 9 157 35 0 6 5 10 11 10 8 0 8 -4 0 -14 -7 -8 -8 -17 -3
-20 5 -3 7 -25 5 -48 -3 -24 0 -55 6 -70 9 -25 15 -28 58 -28 70 0 77 8 76 79
l-1 61 47 0 c59 0 92 17 111 57 8 18 21 35 28 38 7 2 10 0 7 -6 -4 -5 5 -25
19 -43 31 -41 95 -61 168 -53 59 7 74 19 92 72 12 33 14 36 20 17 4 -11 23
-35 42 -51 35 -31 69 -38 109 -22 11 5 25 4 32 -1 6 -5 35 -8 65 -6 l53 3 1
128 c1 70 4 131 8 134 3 4 6 -21 6 -55 0 -33 3 -63 8 -65 4 -3 5 22 4 55 -3
37 0 58 6 54 5 -3 10 -33 11 -66 0 -33 2 -64 2 -68 4 -21 -3 -24 -17 -6 -14
18 -15 18 -4 -4 6 -12 16 -20 22 -16 6 4 9 1 6 -7 -10 -31 96 -89 164 -89 l28
0 -30 -59 c-87 -171 -25 -366 145 -454 53 -28 69 -31 145 -31 71 0 94 4 142
26 70 32 133 96 167 168 36 78 36 192 0 270 -92 198 -329 260 -506 134 -22
-16 -23 -16 -23 12 -1 42 -29 73 -70 77 -35 4 -35 4 -38 61 l-3 56 55 0 55 0
-3 43 c-2 34 -25 100 -26 76 0 -4 -16 -3 -35 1 -24 5 -33 4 -28 -3 3 -6 1 -7
-5 -3 -7 4 -12 19 -12 34 0 21 8 32 36 47 241 130 432 413 475 704 10 75 8
262 -4 316 -15 66 -30 116 -49 165 -141 364 -493 616 -872 624 -56 1 -117 1
-136 -1z m-953 -1778 c68 -45 81 -139 27 -196 -15 -16 -36 -29 -45 -29 -21 0
-30 -30 -14 -50 19 -24 95 -149 95 -155 0 -3 -22 -5 -49 -4 -39 2 -48 6 -43
17 3 9 1 13 -5 9 -5 -4 -15 5 -22 19 -8 19 -8 24 0 18 16 -9 5 9 -34 59 -16
20 -33 37 -38 37 -5 0 -9 -36 -9 -80 l0 -80 -50 1 -50 2 0 222 c0 122 3 225 7
228 13 14 205 -2 230 -18z m1455 -105 c13 -12 36 -20 55 -20 30 0 33 -3 33
-30 0 -30 -1 -30 -53 -30 l-53 0 2 -42 c1 -24 2 -55 3 -69 1 -28 48 -69 81
-72 20 -1 23 -5 23 -32 0 -36 -3 -37 -59 -32 -85 8 -95 25 -95 153 0 65 -2 72
-23 82 -22 10 -40 55 -28 67 3 3 16 5 29 5 13 0 23 6 23 14 0 8 8 17 18 19 9
3 18 5 20 6 2 0 12 -8 24 -19z m-1154 -22 c38 -11 52 -34 58 -94 l5 -44 -53
-2 c-29 0 -70 -1 -90 0 -37 2 -38 1 -38 -34 0 -45 15 -73 46 -84 32 -13 66 3
57 27 -4 11 -3 14 5 9 7 -4 12 -2 12 3 0 6 11 11 25 11 20 0 25 -5 25 -26 0
-36 -15 -60 -47 -73 -30 -12 -158 -9 -171 4 -4 5 -1 5 6 1 21 -12 13 12 -13
40 -26 28 -29 43 -26 128 2 33 8 54 19 63 16 12 16 13 -2 7 -16 -6 -17 -4 -8
12 6 11 20 28 33 39 12 11 19 14 15 8 -5 -9 -2 -11 8 -7 9 3 14 9 12 13 -7 10
87 10 122 -1z m197 -15 c13 -17 14 -17 32 0 35 31 102 15 122 -31 15 -31 16
-168 2 -204 -17 -45 -53 -62 -117 -55 l-55 6 2 -32 c1 -18 1 -51 0 -73 -1 -37
-4 -41 -26 -41 -20 0 -25 5 -25 24 0 13 -3 22 -8 20 -4 -3 -7 8 -7 23 -1 16 2
27 6 24 9 -5 5 23 -4 32 -3 4 -2 15 3 25 6 10 7 20 2 22 -4 3 -6 43 -6 89 1
45 -3 89 -8 96 -7 8 -6 12 3 13 8 0 5 4 -6 9 -18 8 -19 9 -1 9 12 1 16 6 12
16 -3 8 -3 22 0 30 8 21 64 19 79 -2z m390 -4 c33 -6 63 -16 67 -22 4 -7 8
-31 8 -54 0 -48 8 -45 -112 -45 l-68 0 5 -31 c8 -45 35 -85 61 -90 27 -5 54 9
54 29 0 8 7 17 15 20 8 4 12 10 9 16 -3 5 4 4 15 -4 15 -9 20 -20 17 -33 -3
-11 -6 -27 -6 -36 0 -35 -120 -64 -175 -43 -28 11 -52 77 -54 150 -3 106 29
171 79 159 14 -4 52 -11 85 -16z m385 -136 c0 -156 -4 -168 -55 -145 -18 8
-26 8 -31 0 -5 -8 -9 -6 -13 5 -6 15 -9 15 -36 1 -41 -21 -66 -14 -88 24 -39
66 -30 231 12 233 48 1 133 11 158 18 54 15 53 18 53 -136z m-260 115 c0 7 4
11 9 8 11 -7 2 -46 -10 -46 -5 0 -9 4 -9 9 0 5 -3 18 -6 28 -5 15 -4 15 5 3 8
-11 11 -12 11 -2z m557 -20 c-3 -7 -5 -2 -5 12 0 14 2 19 5 13 2 -7 2 -19 0
-25z m-1172 -128 c3 -5 -1 -10 -10 -10 -9 0 -13 5 -10 10 3 6 8 10 10 10 2 0
7 -4 10 -10z m902 -12 c-3 -8 -6 -5 -6 6 -1 11 2 17 5 13 3 -3 4 -12 1 -19z
m-1035 -5 c7 -26 -1 -43 -19 -43 -9 0 -14 3 -10 6 3 3 2 17 -3 30 -8 20 -6 24
9 24 10 0 21 -8 23 -17z m623 -8 c-1 -11 -3 -23 -4 -27 0 -5 -11 -8 -23 -8
-17 0 -19 3 -10 9 11 7 11 9 -2 14 -29 11 -19 38 13 35 22 -2 28 -7 26 -23z
m407 -57 c-8 -8 -9 -4 -5 13 4 13 8 18 11 10 2 -7 -1 -18 -6 -23z m-322 -32
c0 -2 -8 -10 -17 -17 -16 -13 -17 -12 -4 4 13 16 21 21 21 13z m610 0 c0 -3
-4 -8 -10 -11 -5 -3 -10 -1 -10 4 0 6 5 11 10 11 6 0 10 -2 10 -4z"/>
<path d="M3844 2426 c-3 -7 -3 -35 -1 -62 l3 -49 2 57 c2 56 2 57 35 61 l32 4
-33 1 c-20 1 -35 -3 -38 -12z"/>
<path d="M3931 2363 c-15 -10 -21 -25 -21 -53 0 -44 5 -49 57 -55 32 -4 35 -3
22 8 -9 7 -19 22 -23 35 -6 19 -4 22 18 22 30 0 34 -14 9 -29 -16 -10 -16 -11
4 -17 13 -3 20 -10 17 -15 -3 -5 2 -6 10 -3 9 3 16 10 16 16 0 5 -4 7 -9 4 -5
-3 -8 5 -8 19 0 15 4 22 10 18 6 -4 1 8 -12 25 -12 18 -25 32 -29 33 -4 0 -15
2 -24 4 -9 2 -26 -4 -37 -12z"/>
<path d="M3843 2289 c-2 -23 3 -25 10 -4 4 8 3 16 -1 19 -4 3 -9 -4 -9 -15z"/>
<path d="M3845 2230 c3 -5 8 -10 11 -10 2 0 4 5 4 10 0 6 -5 10 -11 10 -5 0
-7 -4 -4 -10z"/>
<path d="M3847 2173 c-2 -5 0 -19 4 -33 7 -23 7 -22 6 8 -1 33 -3 37 -10 25z"/>
<path d="M3848 2083 c5 -21 7 -23 10 -9 2 10 0 22 -6 28 -6 6 -7 0 -4 -19z"/>
<path d="M3852 2030 c0 -14 2 -19 5 -12 2 6 2 18 0 25 -3 6 -5 1 -5 -13z"/>
<path d="M4267 2252 c-40 -44 -15 -72 64 -72 50 0 58 24 22 62 -31 32 -63 36
-86 10z m78 -42 c4 -6 -6 -10 -22 -9 -25 0 -26 1 -8 9 11 5 21 9 22 9 1 1 5
-3 8 -9z"/>
<path d="M4562 2228 c-13 -13 -16 -116 -6 -156 8 -26 46 -39 83 -26 29 11 56
55 39 65 -7 4 -7 9 0 13 17 10 -5 69 -35 93 -31 25 -63 29 -81 11z m95 -63 c6
-14 7 -25 2 -25 -5 0 -6 -12 -3 -27 5 -33 -3 -48 -33 -57 -24 -8 -33 8 -10 17
8 4 7 6 -3 6 -12 1 -14 11 -11 49 5 73 32 91 58 37z"/>
<path d="M4636 2093 c-6 -14 -5 -15 5 -6 7 7 10 15 7 18 -3 3 -9 -2 -12 -12z"/>
<path d="M4870 2250 c-17 -17 -18 -23 -8 -40 7 -11 22 -21 33 -22 89 -7 101
-3 91 30 -6 18 -59 52 -82 52 -8 0 -23 -9 -34 -20z m100 -40 c0 -5 -15 -9 -32
-9 l-33 1 30 8 c17 4 31 8 33 9 1 0 2 -3 2 -9z"/>
<path d="M5190 2232 c-56 -18 -68 -87 -24 -140 34 -40 90 -46 103 -10 10 28 7
117 -5 127 -18 15 -59 28 -74 23z m68 -91 c2 -61 -18 -83 -48 -56 -30 27 -16
103 17 91 8 -3 11 -1 8 4 -3 6 0 10 8 10 10 0 15 -14 15 -49z"/>
<path d="M5226 2103 c-6 -14 -5 -15 5 -6 7 7 10 15 7 18 -3 3 -9 -2 -12 -12z"/>
<path d="M2910 4169 c-369 -93 -644 -382 -726 -764 -10 -48 -13 -245 -4 -300
22 -133 41 -198 91 -302 65 -137 193 -288 309 -366 13 -9 20 -17 15 -18 -95
-7 -246 -95 -288 -167 -23 -40 -24 -102 -2 -135 15 -23 14 -27 -16 -76 -18
-28 -36 -51 -41 -51 -5 0 -8 -12 -7 -27 1 -16 -1 -38 -5 -50 -8 -25 -67 -55
-116 -59 l-35 -2 30 15 c17 9 33 20 36 25 3 5 10 10 15 11 5 1 8 6 6 10 -1 5
2 6 7 2 15 -9 43 40 41 72 -3 43 -1 53 11 53 8 0 8 -4 0 -14 -10 -12 -9 -13 8
-9 17 4 19 12 16 53 -4 67 -31 101 -107 135 -72 33 -113 35 -158 9 -43 -26
-66 -67 -79 -140 -10 -54 -9 -67 8 -106 20 -47 71 -98 99 -98 9 0 26 -7 36
-15 47 -36 151 -7 191 52 l21 30 39 -34 c58 -50 143 -66 225 -43 19 6 55 13
80 16 25 3 67 14 93 24 l48 19 52 -40 52 -39 9 30 c7 23 13 29 28 25 12 -5 18
-1 18 10 0 14 3 14 30 0 39 -20 38 -20 46 19 6 32 28 54 38 38 2 -4 4 -31 3
-60 0 -29 3 -55 6 -58 3 -4 26 5 51 20 24 14 49 26 55 26 12 0 72 37 128 78
29 21 30 26 22 55 -6 18 -13 53 -15 80 l-6 47 56 0 c31 0 56 -3 56 -7 0 -5
-14 -57 -30 -118 -16 -60 -30 -117 -30 -126 0 -15 24 -26 115 -49 55 -14 55
-14 55 21 0 26 3 29 20 24 11 -4 20 -2 20 4 0 6 8 11 18 11 14 0 17 11 20 78
1 42 4 86 6 97 3 11 5 32 5 48 1 24 5 27 36 27 31 0 35 3 35 25 0 19 5 25 23
25 19 0 23 6 25 37 3 33 10 72 23 122 3 11 -8 14 -51 12 l-55 -2 57 35 c136
83 255 216 337 378 92 181 115 312 100 558 -4 53 -46 201 -80 275 -15 35 -23
73 -25 130 -1 44 -3 85 -3 90 -1 6 -24 9 -53 8 -52 -3 -52 -2 -122 65 -84 80
-149 128 -231 170 -66 34 -152 69 -187 76 -137 29 -188 35 -281 34 -82 -1
-135 -8 -217 -29z m-52 -1874 c6 -6 -9 -45 -16 -45 -4 0 -13 14 -19 30 -11 29
-10 31 10 24 12 -3 24 -8 25 -9z m413 -76 c-7 -18 -10 -20 -12 -6 -1 9 -2 23
-3 30 -2 17 18 30 22 14 1 -7 -2 -24 -7 -38z m-453 -50 c-9 -26 -15 -29 -54
-29 -32 0 -42 4 -38 13 4 10 -9 13 -53 12 -70 -1 -103 4 -103 17 0 6 32 8 85
4 47 -4 85 -3 85 2 0 5 20 9 44 9 l44 0 -10 -28z m-753 1 c-3 -5 -12 -10 -18
-10 -7 0 -6 4 3 10 19 12 23 12 15 0z m43 -38 c0 -15 1 -31 2 -37 6 -27 -2
-41 -25 -43 -21 -1 -25 2 -25 27 0 16 8 37 18 47 9 10 16 19 15 21 -7 9 -2 23
6 18 5 -3 9 -18 9 -33z m-58 -22 c0 -16 -5 -32 -10 -35 -6 -4 -7 -11 -4 -17 4
-7 2 -8 -5 -4 -6 4 -11 23 -9 41 1 19 6 31 12 28 5 -4 7 1 3 11 -4 10 -3 15 3
11 6 -3 10 -19 10 -35z m-67 13 c-9 -25 -26 -34 -35 -20 -5 8 -8 7 -8 -5 0 -9
-4 -20 -10 -23 -6 -4 -7 2 -1 17 4 13 13 23 19 23 6 0 17 6 24 13 16 16 19 15
11 -5z m804 -32 c-6 -16 -18 -30 -26 -30 -9 0 -51 -8 -93 -18 -42 -9 -80 -14
-84 -10 -12 11 -3 14 62 20 68 7 113 23 132 49 19 26 22 22 9 -11z m-547 15
c0 -3 -4 -8 -10 -11 -5 -3 -10 -1 -10 4 0 6 5 11 10 11 6 0 10 -2 10 -4z
m-230 -36 c0 -5 -2 -10 -4 -10 -3 0 -8 5 -11 10 -3 6 -1 10 4 10 6 0 11 -4 11
-10z m240 6 c0 -2 -7 -6 -15 -10 -8 -3 -15 -1 -15 4 0 6 7 10 15 10 8 0 15 -2
15 -4z m-282 -53 c-2 -9 -8 -18 -15 -20 -7 -3 -9 3 -6 16 6 25 26 28 21 4z
m69 10 c-4 -3 -2 -12 5 -20 9 -11 8 -18 -5 -31 -16 -15 -17 -14 -17 14 0 29 6
44 18 44 3 0 2 -3 -1 -7z m138 -43 c0 -53 -12 -72 -56 -90 -39 -17 -49 -6 -56
59 -4 42 -2 51 10 51 9 0 19 5 23 11 4 7 0 9 -14 5 -11 -4 -23 -2 -26 3 -4 6
18 9 56 8 l63 -1 0 -46z m-118 -75 c0 -8 -4 -12 -9 -9 -4 3 -8 9 -8 15 0 5 4
9 8 9 5 0 9 -7 9 -15z"/>
<path d="M935 4171 c-106 -23 -146 -37 -230 -79 -102 -51 -180 -106 -260 -186
-121 -120 -212 -279 -258 -448 -29 -109 -31 -356 -3 -458 55 -203 129 -334
265 -470 71 -71 180 -150 245 -178 30 -13 30 -13 -15 -67 -9 -11 -23 -39 -32
-62 -16 -41 -13 -52 9 -35 5 4 1 0 -8 -10 -12 -10 -18 -31 -18 -58 0 -36 3
-41 18 -36 15 5 15 4 2 -6 -18 -15 -18 -22 -1 -62 14 -34 80 -98 93 -90 5 3 7
0 6 -8 -2 -7 5 -12 14 -12 10 1 16 -1 13 -5 -6 -11 82 -47 132 -55 23 -3 44
-2 48 3 3 6 -2 9 -12 7 -10 -2 -27 0 -38 5 -14 5 -2 8 38 8 32 1 56 5 53 10
-4 5 2 7 11 5 10 -2 25 2 33 9 21 16 50 59 50 72 0 5 -8 -3 -18 -20 -11 -16
-25 -35 -33 -42 -12 -10 -15 -8 -15 7 0 10 4 17 7 14 11 -6 39 37 39 58 0 10
5 18 11 18 5 0 7 -5 3 -12 -5 -7 -2 -9 8 -5 13 4 14 0 7 -30 -9 -42 -56 -93
-87 -96 -12 -1 -22 -5 -22 -10 0 -10 37 0 67 19 20 12 56 67 58 86 1 19 14 16
29 -7 18 -27 138 -92 177 -96 41 -4 69 1 69 10 0 6 -17 7 -37 4 -44 -7 -36 8
13 25 27 9 31 8 30 -6 -3 -46 85 16 101 71 l9 32 36 -55 c31 -47 46 -59 97
-79 62 -25 97 -24 125 4 18 19 50 20 43 2 -4 -10 12 -14 70 -15 57 -2 74 1 70
10 -2 7 -12 12 -21 12 -9 -1 -16 4 -16 11 0 7 -6 15 -12 17 -7 3 -14 20 -15
39 -6 92 -6 224 1 319 4 58 3 110 -1 115 -20 25 -81 41 -152 40 -71 -1 -73 -1
-51 14 43 28 144 117 179 157 56 64 140 199 170 272 53 127 75 242 73 380 -3
196 -62 381 -174 546 -54 81 -177 200 -263 257 -76 50 -236 121 -300 134 -22
5 -47 10 -55 13 -8 2 -78 5 -155 7 -106 3 -159 -1 -220 -14z m745 -1802 c0 -4
9 -9 20 -12 13 -3 20 -14 20 -29 1 -12 2 -46 4 -74 l3 -51 -41 12 c-36 11 -46
10 -77 -6 -20 -10 -49 -34 -64 -53 -16 -20 -35 -36 -43 -36 -9 0 -13 3 -9 6
12 12 -66 74 -118 93 -76 29 -113 29 -163 1 -39 -22 -47 -32 -43 -53 1 -5 -2
-6 -7 -3 -5 3 -17 -5 -28 -17 -18 -21 -20 -26 -23 -56 -1 -10 -10 -12 -36 -8
-23 4 -35 2 -36 -6 -1 -7 -2 -41 -3 -76 -2 -60 -1 -62 11 -35 6 16 12 22 13
13 0 -8 -7 -24 -15 -35 -8 -10 -15 -15 -15 -10 0 5 -7 3 -15 -4 -8 -7 -12 -17
-8 -24 3 -6 3 -8 -2 -4 -4 4 -16 3 -26 -3 -32 -17 -90 -17 -110 0 -32 27 -50
120 -44 229 3 54 7 106 9 117 3 11 5 25 5 32 1 13 16 11 113 -12 32 -7 58 -11
58 -8 0 3 7 0 15 -7 9 -7 14 -19 11 -25 -2 -7 0 -18 5 -26 7 -11 9 -10 10 6 1
17 2 16 10 -5 7 -21 8 -20 6 13 -2 20 1 37 5 37 4 0 8 -12 8 -28 0 -15 9 -35
20 -44 18 -17 19 -16 15 26 l-5 43 88 7 c118 9 244 41 338 87 71 34 144 48
144 28z m187 -69 c-4 -28 -15 -35 -12 -8 3 27 3 28 10 28 3 0 4 -9 2 -20z m-4
-92 c-10 -20 -19 -5 -14 25 4 31 5 31 11 7 4 -14 5 -28 3 -32z m-173 -18 c-20
-13 -33 -13 -25 0 3 6 14 10 23 10 15 0 15 -2 2 -10z m-343 -6 c-3 -3 -2 -17
3 -30 6 -15 6 -26 -1 -30 -7 -4 -6 -10 1 -18 12 -15 10 -66 -3 -83 -6 -9 -5
-13 3 -13 12 0 10 -28 -5 -75 -6 -16 -5 -17 4 -5 6 8 11 11 11 6 0 -5 7 -3 15
4 11 9 15 9 15 1 0 -11 -15 -20 -42 -25 -7 -1 -23 -7 -35 -14 -27 -15 -34 -5
-28 42 3 24 1 36 -8 36 -8 0 -9 3 -1 8 13 9 14 42 1 42 -5 0 -4 6 2 14 8 10 9
16 1 21 -5 3 -10 1 -10 -5 0 -6 -5 -8 -11 -4 -8 5 -6 10 7 18 11 6 20 24 21
41 1 16 10 36 20 42 13 10 14 13 2 13 -12 0 -12 2 1 10 16 11 47 14 37 4z
m523 2 c0 -2 -7 -9 -15 -16 -13 -11 -14 -10 -9 4 5 14 24 23 24 12z m-140 -55
c1 -9 3 -38 6 -66 7 -71 -4 -129 -28 -155 -18 -19 -22 -20 -30 -6 -16 29 -11
183 8 233 16 41 19 44 31 27 7 -10 13 -25 13 -33z m-50 26 c0 -2 -10 -12 -22
-23 l-23 -19 19 23 c18 21 26 27 26 19z m-400 -21 c0 -3 -4 -8 -10 -11 -5 -3
-10 -1 -10 4 0 6 5 11 10 11 6 0 10 -2 10 -4z m577 -31 c2 -14 0 -25 -5 -25
-6 0 -9 13 -8 29 1 34 9 32 13 -4z m-382 15 c3 -5 1 -10 -4 -10 -6 0 -11 5
-11 10 0 6 2 10 4 10 3 0 8 -4 11 -10z m-212 -25 c-3 -9 -8 -14 -10 -11 -3 3
-2 9 2 15 9 16 15 13 8 -4z m257 -1 c0 -2 -7 -4 -15 -4 -8 0 -15 4 -15 10 0 5
7 7 15 4 8 -4 15 -8 15 -10z m-129 -17 c-10 -9 -11 -8 -5 6 3 10 9 15 12 12 3
-3 0 -11 -7 -18z m86 1 c-3 -8 -6 -5 -6 6 -1 11 2 17 5 13 3 -3 4 -12 1 -19z
m177 -11 c-6 -26 -6 -82 0 -115 3 -13 1 -20 -5 -17 -5 4 -7 10 -4 15 3 5 2 11
-3 14 -6 4 -7 53 -3 124 1 7 5 11 10 7 6 -3 7 -15 5 -28z m-151 -2 c-3 -9 -8
-14 -10 -11 -3 3 -2 9 2 15 9 16 15 13 8 -4z m-330 -10 c-3 -9 -8 -14 -10 -11
-3 3 -2 9 2 15 9 16 15 13 8 -4z m689 -21 c-6 -45 -17 -48 -18 -3 -1 25 3 38
10 36 6 -2 9 -17 8 -33z m-712 16 c0 -5 -5 -10 -11 -10 -5 0 -7 5 -4 10 3 6 8
10 11 10 2 0 4 -4 4 -10z m267 -12 c-3 -8 -6 -5 -6 6 -1 11 2 17 5 13 3 -3 4
-12 1 -19z m54 -1 c-10 -9 -11 -8 -5 6 3 10 9 15 12 12 3 -3 0 -11 -7 -18z
m33 -18 c-3 -5 -10 -7 -15 -3 -5 3 -7 10 -3 15 3 5 10 7 15 3 5 -3 7 -10 3
-15z m-48 -27 c-17 -16 -18 -16 -5 5 7 12 15 20 18 17 3 -2 -3 -12 -13 -22z
m32 -14 c-7 -13 -12 -28 -13 -35 0 -15 -42 -63 -55 -63 -18 0 -10 18 19 43 17
14 28 27 25 30 -8 8 15 47 27 47 6 0 5 -9 -3 -22z m379 -18 c1 -11 -2 -22 -8
-25 -5 -4 -9 5 -9 19 0 30 15 35 17 6z m-127 -59 c0 -5 -7 -12 -16 -15 -14 -5
-15 -4 -4 9 14 17 20 19 20 6z m15 -41 c-6 -10 -45 -9 -45 1 0 10 23 17 37 11
7 -2 11 -8 8 -12z m-55 -10 c0 -5 -5 -10 -11 -10 -5 0 -7 5 -4 10 3 6 8 10 11
10 2 0 4 -4 4 -10z"/>
<path d="M4780 2290 c-6 -11 -8 -20 -6 -20 3 0 10 9 16 20 6 11 8 20 6 20 -3
0 -10 -9 -16 -20z"/>
<path d="M470 2248 c-25 -42 -25 -43 8 -66 52 -36 70 -35 92 8 11 22 17 41 12
43 -30 19 -83 47 -87 47 -3 0 -14 -15 -25 -32z"/>
<path d="M392 2068 c-39 -104 -52 -160 -41 -174 5 -7 25 -19 44 -28 31 -15 38
-15 63 -2 40 21 132 95 132 106 0 5 -12 16 -26 23 -24 13 -29 12 -52 -10 -14
-13 -26 -22 -28 -20 -2 1 3 21 11 42 8 22 14 45 15 52 0 14 -68 63 -87 63 -6
0 -20 -24 -31 -52z"/>
</g>
</svg>
